HIERARCHY
ROOT SimulationBone
{
	OFFSET 0.000000 0.000000 0.000000
	CHANNELS 6 Xposition Yposition Zposition Zrotation Yrotation Xrotation 
	JOINT Hips
	{
		OFFSET 0.000000 0.000000 0.000000
		CHANNELS 6 Xposition Yposition Zposition Zrotation Yrotation Xrotation 
		JOINT RightUpLeg
		{
			OFFSET 0.103459 1.857827 10.548504
			CHANNELS 3 Zrotation Yrotation Xrotation
			JOINT RightLeg
			{
				OFFSET 43.500008 0.000000 0.000004
				CHANNELS 3 Zrotation Yrotation Xrotation
				JOINT RightFoot
				{
					OFFSET 42.372192 0.000011 0.000000
					CHANNELS 3 Zrotation Yrotation Xrotation
					JOINT RightToe
					{
						OFFSET 17.299973 -0.000013 -0.000010
						CHANNELS 3 Zrotation Yrotation Xrotation
						End Site
						{
							OFFSET 0.000000 0.000000 0.000000
						}
					}
				}
			}
		}
		JOINT LeftUpLeg
		{
			OFFSET 0.103454 1.857830 -10.548500
			CHANNELS 3 Zrotation Yrotation Xrotation
			JOINT LeftLeg
			{
				OFFSET 43.500038 -0.000038 0.000004
				CHANNELS 3 Zrotation Yrotation Xrotation
				JOINT LeftFoot
				{
					OFFSET 42.372253 0.000019 0.000024
					CHANNELS 3 Zrotation Yrotation Xrotation
					JOINT LeftToe
					{
						OFFSET 17.299988 -0.000007 0.000004
						CHANNELS 3 Zrotation Yrotation Xrotation
						End Site
						{
							OFFSET 0.000000 0.000000 0.000000
						}
					}
				}
			}
		}
		JOINT Spine
		{
			OFFSET 6.901963 -2.603744 0.000004
			CHANNELS 3 Zrotation Yrotation Xrotation
			JOINT Spine1
			{
				OFFSET 12.588104 0.000008 -0.000010
				CHANNELS 3 Zrotation Yrotation Xrotation
				JOINT Spine2
				{
					OFFSET 12.343202 -0.000005 0.000010
					CHANNELS 3 Zrotation Yrotation Xrotation
					JOINT Neck
					{
						OFFSET 25.832897 0.000000 0.000001
						CHANNELS 3 Zrotation Yrotation Xrotation
						JOINT Head
						{
							OFFSET 11.766611 -0.000006 -0.000000
							CHANNELS 3 Zrotation Yrotation Xrotation
							End Site
							{
								OFFSET 0.000000 0.000000 0.000000
							}
						}
					}
					JOINT RightShoulder
					{
						OFFSET 19.745899 -1.480366 6.000108
						CHANNELS 3 Zrotation Yrotation Xrotation
						JOINT RightArm
						{
							OFFSET 11.284111 -0.000018 -0.000015
							CHANNELS 3 Zrotation Yrotation Xrotation
							JOINT RightForeArm
							{
								OFFSET 33.000050 -0.000005 0.000028
								CHANNELS 3 Zrotation Yrotation Xrotation
								JOINT RightHand
								{
									OFFSET 25.200012 0.000000 0.000002
									CHANNELS 3 Zrotation Yrotation Xrotation
									End Site
									{
										OFFSET 0.000000 0.000000 0.000000
									}
								}
							}
						}
					}
					JOINT LeftShoulder
					{
						OFFSET 19.746111 -1.480335 -6.000074
						CHANNELS 3 Zrotation Yrotation Xrotation
						JOINT LeftArm
						{
							OFFSET 11.284151 0.000036 0.000001
							CHANNELS 3 Zrotation Yrotation Xrotation
							JOINT LeftForeArm
							{
								OFFSET 33.000092 -0.000035 0.000022
								CHANNELS 3 Zrotation Yrotation Xrotation
								JOINT LeftHand
								{
									OFFSET 25.199768 0.000178 0.000417
									CHANNELS 3 Zrotation Yrotation Xrotation
									End Site
									{
										OFFSET 0.000000 0.000000 0.000000
									}
								}
							}
						}
					}
				}
			}
		}
	}
}
MOTION
Frames: 13
Frame Time: 0.016667
-270.089263 0.000000 -563.222555 0.000000 9.070144 0.000000 -0.681862 92.159698 0.616547 88.912119 0.966275 -179.511061 -172.155314 -4.403898 165.077298 -23.826347 -3.318864 -9.939181 69.871468 1.925380 -16.100091 21.454557 0.003104 0.000016 162.249559 -2.918593 -168.706478 -16.585765 -1.206905 0.903025 67.638932 -1.683673 -2.816573 21.454557 -0.003092 0.000000 5.774088 -0.016439 -1.711743 1.535536 -0.011134 -3.423546 1.218064 -0.031933 -3.423418 -5.357968 -10.363472 -3.118712 18.355177 27.806650 -6.412663 -165.510891 -73.330970 -16.274890 -17.866440 57.278822 26.313702 -34.939685 -13.855224 1.286704 1.992668 -6.341832 10.181825 174.255651 76.797399 -4.353396 -7.537090 -63.271783 -35.399599 -31.863870 8.360280 -0.834772 -0.150274 7.832723 -14.393237 
-269.183639 0.000000 -563.146258 0.000000 8.935571 0.000000 -0.544672 92.129789 0.674873 89.111592 1.127008 -179.806304 -172.372589 -5.016535 164.819142 -25.722573 -3.155682 -9.744975 68.425990 1.455932 -16.447988 21.454553 0.003105 0.000016 162.829399 -3.241606 -168.640364 -17.131360 -1.082995 0.650813 68.403004 -1.632555 -3.240016 21.454555 -0.003092 -0.000000 5.776228 0.048900 -1.635909 1.537939 0.118610 -3.271055 1.220411 0.098728 -3.271711 -5.318733 -10.482170 -3.096038 18.147881 27.758193 -6.463277 -165.243410 -73.274365 -16.549717 -16.877005 57.660662 27.022975 -35.953926 -14.126570 1.327776 1.530634 -5.750129 10.334434 174.437799 76.732150 -4.169345 -8.227719 -62.786162 -35.290095 -32.125935 8.432514 -0.844834 -0.468656 7.615082 -16.003257 
-268.294033 0.000000 -563.069179 0.000000 8.796430 0.000000 -0.410882 92.057220 0.740026 89.361975 1.361798 179.881597 -172.734022 -5.786195 164.421846 -28.000416 -2.963464 -9.448272 66.966343 0.919619 -16.715933 21.454550 0.003106 0.000017 163.411484 -3.621003 -168.693528 -17.760777 -0.909196 0.470335 69.207840 -1.625788 -3.660467 21.454553 -0.003092 0.000000 5.801383 0.131297 -1.555718 1.586088 0.283030 -3.109578 1.268504 0.264119 -3.111229 -5.250088 -10.664078 -3.066525 17.834529 27.731125 -6.545865 -165.042696 -73.102240 -16.756868 -16.055467 57.822570 27.770056 -36.817010 -14.364042 1.363847 1.014777 -5.236837 10.671054 174.552847 76.654627 -4.053990 -9.115961 -62.266366 -35.091547 -32.337564 8.524404 -0.855218 -0.775267 7.484282 -17.404555 
-267.421936 0.000000 -562.991754 0.000000 8.651181 0.000000 -0.290890 91.932685 0.814283 89.648383 1.695807 179.596041 -173.292609 -6.757188 163.981904 -30.723060 -2.744579 -9.057193 65.578747 0.350863 -16.868368 21.454550 0.003111 0.000017 163.956033 -4.078258 -168.815034 -18.508370 -0.711429 0.356828 70.066539 -1.645135 -4.039779 21.454550 -0.003092 0.000000 5.847071 0.237285 -1.478793 1.674937 0.495131 -2.954165 1.357303 0.477154 -2.957098 -5.150273 -10.900175 -3.034200 17.453043 27.707164 -6.651542 -164.903048 -72.863216 -16.901924 -15.448750 57.840562 28.438398 -37.467676 -14.551487 1.391934 0.484281 -4.854115 11.169939 174.529458 76.592811 -4.079411 -10.138432 -61.759097 -34.754959 -32.482154 8.640455 -0.865837 -1.026366 7.422375 -18.450095 
-266.567626 0.000000 -562.914263 0.000000 8.497266 0.000000 -0.187361 91.769913 0.898207 89.956926 2.106715 179.379358 -174.085048 -7.886703 163.635445 -33.889301 -2.460014 -8.678013 64.250646 -0.220829 -17.046648 21.454555 0.003112 0.000017 164.472772 -4.595594 -168.967665 -19.322965 -0.507688 0.305605 70.958807 -1.682117 -4.360446 21.454550 -0.003092 0.000000 5.908723 0.361940 -1.413026 1.795483 0.744995 -2.820536 1.477794 0.727819 -2.824979 -5.029096 -11.166270 -3.004595 17.050495 27.667524 -6.768182 -164.837011 -72.624803 -16.971469 -15.061963 57.800296 28.954503 -37.872223 -14.678107 1.410151 0.006796 -4.615438 11.764495 174.352163 76.560910 -4.261103 -11.233664 -61.297660 -34.227327 -32.570719 8.770992 -0.876281 -1.185782 7.420101 -19.081549 
-265.730375 0.000000 -562.836655 0.000000 8.330718 0.000000 -0.098714 91.589904 0.991145 90.278089 2.556184 179.267733 -175.140709 -9.103003 163.514466 -37.457618 -2.087486 -8.408287 62.929239 -0.764755 -17.334275 21.454563 0.003104 0.000019 164.989339 -5.143438 -169.125179 -20.129631 -0.312529 0.312205 71.852641 -1.732285 -4.612865 21.454554 -0.003092 -0.000000 5.981925 0.496741 -1.365090 1.939023 1.015564 -2.722053 1.621269 0.998976 -2.728131 -4.898108 -11.436727 -2.982804 16.669624 27.598072 -6.884373 -164.858834 -72.449016 -16.950307 -14.884346 57.777171 29.272806 -38.010876 -14.737899 1.417543 -0.349988 -4.515523 12.374880 174.031583 76.564815 -4.588090 -12.350252 -60.902669 -33.463653 -32.623276 8.903401 -0.886116 -1.229304 7.471868 -19.284662 
-264.909034 0.000000 -562.759112 0.000000 8.145200 0.000000 -0.012048 91.419701 1.090982 90.616164 2.990587 179.272629 -176.457104 -10.314499 163.688571 -41.283547 -1.672418 -8.194981 61.486154 -1.208981 -17.406911 21.454567 0.003098 0.000022 165.557078 -5.683000 -169.292304 -20.843842 -0.135709 0.370798 72.702848 -1.795700 -4.798704 21.454557 -0.003092 0.000000 6.065143 0.630147 -1.336472 2.102653 1.283785 -2.661786 1.784838 1.267555 -2.669485 -4.764387 -11.695391 -2.971136 16.326167 27.502977 -6.995607 -164.977905 -72.357019 -16.828586 -14.901614 57.797544 29.398581 -37.891768 -14.738949 1.414592 -0.542395 -4.505180 12.911591 173.634281 76.591803 -4.992706 -13.464829 -60.559761 -32.466842 -32.668237 9.027499 -0.895220 -1.176556 7.580297 -19.134357 
-264.102365 0.000000 -562.682086 0.000000 7.932144 0.000000 0.083673 91.278797 1.194597 90.976257 3.369687 179.398467 -178.006100 -11.438681 164.190187 -45.196640 -1.256447 -7.988349 59.815798 -1.462258 -16.961053 21.454559 0.003106 0.000022 166.214262 -6.186337 -169.475882 -21.405984 0.014805 0.474968 73.474357 -1.872606 -4.923221 21.454553 -0.003092 0.000000 6.157284 0.753284 -1.326590 2.284276 1.531946 -2.638688 1.966418 1.515851 -2.647885 -4.630950 -11.929766 -2.970943 16.022221 27.391901 -7.100876 -165.197962 -72.352002 -16.602455 -15.097392 57.864935 29.355465 -37.535395 -14.691884 1.402683 -0.543918 -4.528758 13.298124 173.236274 76.623687 -5.397810 -14.560360 -60.243782 -31.266422 -32.733668 9.136204 -0.903735 -1.058473 7.751168 -18.728742 
-263.308648 0.000000 -562.605629 0.000000 7.681392 0.000000 0.180176 91.150452 1.295635 91.353605 3.722690 179.642683 -179.685502 -12.463700 164.974805 -49.022275 -0.840606 -7.928295 58.001098 -1.461665 -16.180792 21.454551 0.003116 0.000020 166.922788 -6.680099 -169.659358 -21.865585 0.134811 0.615546 74.185901 -1.959316 -4.994988 21.454550 -0.003092 -0.000000 6.256171 0.870965 -1.331680 2.479356 1.769619 -2.645157 2.161463 1.753481 -2.655789 -4.489010 -12.132538 -2.982805 15.732767 27.278067 -7.205579 -165.497504 -72.406517 -16.294242 -15.445012 57.943184 29.195178 -36.983216 -14.603733 1.383436 -0.376982 -4.546307 13.523489 172.891853 76.637921 -5.748695 -15.619735 -59.920489 -29.947308 -32.837776 9.232430 -0.912236 -0.908916 7.999186 -18.170057 
-262.525498 0.000000 -562.529947 0.000000 7.382537 0.000000 0.267678 91.016672 1.387464 91.741905 4.078113 179.991613 178.610544 -13.383205 165.966696 -52.619787 -0.431621 -8.117971 56.196249 -1.201743 -15.315851 21.454551 0.003116 0.000016 167.639031 -7.189756 -169.827692 -22.280318 0.220868 0.777406 74.861236 -2.048096 -5.024372 21.454553 -0.003091 -0.000000 6.359213 0.987722 -1.346054 2.682613 2.005754 -2.669748 2.364678 1.989463 -2.681805 -4.327856 -12.301697 -3.005976 15.428954 27.175729 -7.315795 -165.843858 -72.485091 -15.937804 -15.912183 57.988498 28.974677 -36.283689 -14.479133 1.358537 -0.083655 -4.533639 13.601202 172.634159 76.616287 -6.012160 -16.626009 -59.562472 -28.605324 -32.991115 9.322761 -0.921393 -0.759102 8.337915 -17.551846 
-261.750148 0.000000 -562.455574 0.000000 7.027827 0.000000 0.351607 90.890694 1.464614 92.135911 4.392734 -179.609734 176.919726 -14.130201 167.051647 -55.982330 -0.013852 -8.326458 54.633275 -0.822420 -14.374623 21.454555 0.003111 0.000014 168.373999 -7.678606 -169.995253 -22.631101 0.268495 0.925835 75.490508 -2.120193 -5.025612 21.454557 -0.003091 0.000000 6.463200 1.093313 -1.359580 2.887998 2.219601 -2.692479 2.570024 2.203169 -2.705828 -4.140863 -12.451321 -3.035053 15.093724 27.100120 -7.433947 -166.186206 -72.550662 -15.585637 -16.457152 57.966386 28.740899 -35.492251 -14.316817 1.329351 0.263953 -4.518688 13.576399 172.426963 76.561600 -6.225091 -17.571385 -59.173280 -27.315829 -33.183431 9.418475 -0.931727 -0.627173 8.765057 -16.928813 
-260.979439 0.000000 -562.382457 0.000000 6.612679 0.000000 0.437721 90.786306 1.521392 92.526932 4.621394 -179.222410 175.263708 -14.649479 168.121582 -59.112296 0.433279 -8.237218 53.698498 -0.510783 -13.331737 21.454556 0.003109 0.000015 169.136523 -8.104372 -170.178250 -22.904061 0.275633 1.026054 76.066117 -2.156556 -5.013179 21.454554 -0.003091 0.000000 6.564718 1.177047 -1.362215 3.089145 2.389443 -2.693649 2.771142 2.373002 -2.708024 -3.924351 -12.596981 -3.064129 14.719656 27.062245 -7.559932 -166.470312 -72.574128 -15.293613 -17.030594 57.854545 28.535165 -34.667071 -14.116797 1.297392 0.593700 -4.545552 13.497308 172.218952 76.484096 -6.439525 -18.454558 -58.767737 -26.137023 -33.397391 9.529148 -0.943527 -0.523282 9.272372 -16.340127 
-260.209896 0.000000 -562.309995 0.000000 6.135329 0.000000 0.519001 90.688271 1.552948 92.899014 4.780510 -178.880068 173.644418 -14.974794 169.150605 -61.931223 0.829014 -7.507245 54.325425 -0.504349 -12.304833 21.454555 0.003109 0.000017 169.872119 -8.466995 -170.373058 -23.182680 0.252948 1.062337 76.623015 -2.148812 -4.999932 21.454550 -0.003092 0.000000 6.660044 1.241329 -1.348520 3.278721 2.519797 -2.662520 2.960683 2.503542 -2.677684 -3.682355 -12.744069 -3.089655 14.326552 27.055418 -7.686586 -166.656710 -72.558748 -15.102189 -17.567596 57.668767 28.380635 -33.870279 -13.890049 1.264925 0.863482 -4.669926 13.394175 171.970133 76.403311 -6.695714 -19.281246 -58.372318 -25.088121 -33.608095 9.652857 -0.956163 -0.436909 9.842449 -15.800594 
